<svg width="318" height="320" viewBox="0 0 318 320" fill="none" xmlns="http://www.w3.org/2000/svg">
<g filter="url(#filter0_d_6002_1273)">
<rect x="19" y="14" width="280" height="281.939" rx="9.29966" fill="white"/>
<path d="M53.8419 58H43.0799V42.5759H53.4498V45.7348H46.6745V48.6323H53.0794V51.6169H46.6745V54.8193H53.8419V58ZM67.7284 58H63.5238L61.1928 54.6668L58.7964 58H54.6572L58.9925 52.314L55.0711 47.1509H59.2321L61.2582 50.0483L63.306 47.1509H67.3363L63.4367 52.314L67.7284 58ZM81.121 52.5319C81.121 55.56 79.2257 58.305 75.9579 58.305C74.6289 58.305 73.3436 57.7386 72.6683 56.8018H72.6247V63.2285H69.0519V47.1509H72.4504V48.4798H72.5158C73.1693 47.6084 74.3893 46.8459 75.9796 46.8459C79.1385 46.8459 81.121 49.5037 81.121 52.5319ZM77.6571 52.5319C77.6571 51.1376 76.8075 49.7651 75.1082 49.7651C73.4961 49.7651 72.494 51.1812 72.494 52.5536C72.494 53.9697 73.4961 55.3422 75.1082 55.3422C76.8075 55.3422 77.6571 53.9479 77.6571 52.5319ZM86.2455 51.3337H90.8422C90.8422 50.2008 90.1233 49.2641 88.7073 49.2641C87.3348 49.2641 86.3326 50.2226 86.2455 51.3337ZM94.1318 52.7061C94.1318 52.9894 94.1318 53.2944 94.11 53.5558H86.2455C86.3544 54.754 87.5526 55.6036 88.838 55.6036C89.9708 55.6036 90.7551 55.1243 91.2344 54.4708L93.7179 56.0393C92.694 57.5207 90.9947 58.3486 88.7944 58.3486C85.5266 58.3486 82.8252 56.279 82.8252 52.619C82.8252 49.068 85.3959 46.8023 88.6855 46.8023C91.8879 46.8023 94.1318 49.0026 94.1318 52.7061ZM107.066 58H103.471V52.0744C103.471 50.8762 103.145 49.7869 101.859 49.7869C100.596 49.7869 99.9421 50.8762 99.9421 52.1179V58H96.3475V47.1509H99.8113V48.6541H99.8549C100.356 47.6955 101.598 46.8459 103.101 46.8459C106.02 46.8459 107.066 49.1116 107.066 51.2901V58ZM118.116 48.3273L116.155 50.3533C115.589 49.8087 114.761 49.373 113.889 49.373C113.214 49.373 112.539 49.6126 112.539 50.2444C112.539 50.8544 113.127 51.0287 114.521 51.3337C116.177 51.704 117.985 52.5319 117.985 54.645C117.985 57.39 115.567 58.3486 113.345 58.3486C111.58 58.3486 109.75 57.7604 108.617 56.6711L110.622 54.5579C111.253 55.255 112.234 55.7779 113.279 55.7779C113.868 55.7779 114.565 55.5382 114.565 54.8411C114.565 54.1658 113.889 53.9479 112.408 53.5993C110.905 53.2508 109.249 52.4883 109.249 50.4405C109.249 47.848 111.689 46.8023 113.759 46.8023C115.371 46.8023 117.048 47.3251 118.116 48.3273ZM122.923 51.3337H127.52C127.52 50.2008 126.801 49.2641 125.385 49.2641C124.013 49.2641 123.01 50.2226 122.923 51.3337ZM130.81 52.7061C130.81 52.9894 130.81 53.2944 130.788 53.5558H122.923C123.032 54.754 124.23 55.6036 125.516 55.6036C126.649 55.6036 127.433 55.1243 127.912 54.4708L130.396 56.0393C129.372 57.5207 127.672 58.3486 125.472 58.3486C122.204 58.3486 119.503 56.279 119.503 52.619C119.503 49.068 122.074 46.8023 125.363 46.8023C128.566 46.8023 130.81 49.0026 130.81 52.7061ZM141.369 48.3273L139.408 50.3533C138.842 49.8087 138.014 49.373 137.143 49.373C136.467 49.373 135.792 49.6126 135.792 50.2444C135.792 50.8544 136.38 51.0287 137.774 51.3337C139.43 51.704 141.238 52.5319 141.238 54.645C141.238 57.39 138.82 58.3486 136.598 58.3486C134.833 58.3486 133.003 57.7604 131.871 56.6711L133.875 54.5579C134.507 55.255 135.487 55.7779 136.533 55.7779C137.121 55.7779 137.818 55.5382 137.818 54.8411C137.818 54.1658 137.143 53.9479 135.661 53.5993C134.158 53.2508 132.502 52.4883 132.502 50.4405C132.502 47.848 134.942 46.8023 137.012 46.8023C138.624 46.8023 140.302 47.3251 141.369 48.3273Z" fill="#0D333F"/>
<path d="M54.2127 86.5391V88.4839C56.3577 88.5411 58.8459 89.2275 60.6191 90.6575C59.7039 91.7157 58.7887 92.7453 57.8449 93.7749C56.9011 92.8311 55.4139 92.2591 54.2127 92.2305V96.8065C57.1585 97.6931 60.7049 98.9515 60.7049 103.041C60.7049 107.217 57.4445 109.19 54.0983 109.305V111.392H51.9819V109.305C49.5223 109.219 46.8053 108.361 44.9177 106.673C45.9187 105.644 46.9483 104.586 47.9207 103.527C48.9503 104.643 50.7235 105.472 51.9819 105.501V100.496C48.6929 99.6093 45.7471 98.3509 45.7471 94.5185C45.7471 90.7719 49.1219 88.6555 52.1249 88.5125V86.5391H54.2127ZM52.1249 96.3203V92.1733C51.0953 92.2877 50.1229 92.9455 50.1229 94.2039C50.1229 95.4051 50.9237 96.0057 52.1249 96.3203ZM54.0983 101.011V105.529C55.3853 105.472 56.1861 104.614 56.1861 103.299C56.1861 101.983 55.2995 101.382 54.0983 101.011ZM78.9084 92.6023L71.1578 109.019H65.5808L73.789 92.8883H64.208V88.7699H78.9084V92.6023ZM88.1028 104.443L85.3286 112.565H81.4676L83.6126 104.443H88.1028ZM102.369 109.019H97.5638V94.1467L93.7886 97.0639L91.3004 93.6605L97.9642 88.7699H102.369V109.019ZM124.548 109.019H109.904V105.015L117.798 97.8647C118.799 96.9209 119.457 95.9771 119.457 94.7473C119.457 93.3173 118.456 92.3163 116.94 92.3163C115.338 92.3163 114.28 93.5747 114.08 95.3765L109.475 94.7473C109.933 90.6575 113.25 88.2265 117.197 88.2265C120.915 88.2265 124.519 90.1999 124.519 94.4327C124.519 97.3213 122.832 99.0087 120.972 100.667L116.282 104.843H124.548V109.019ZM143.609 98.8371C143.609 104.586 141.435 109.562 135.715 109.562C129.967 109.562 127.765 104.586 127.765 98.8371C127.765 93.1171 129.967 88.2265 135.715 88.2265C141.435 88.2265 143.609 93.1171 143.609 98.8371ZM138.69 98.8371C138.69 96.2917 138.232 92.2877 135.715 92.2877C133.17 92.2877 132.684 96.2917 132.684 98.8371C132.684 101.44 133.17 105.444 135.715 105.444C138.232 105.444 138.69 101.44 138.69 98.8371Z" fill="#0D333F"/>
<path d="M45.3512 132.941V121.132H49.4211C51.2059 121.132 53.1241 121.866 53.1241 124.118C53.1241 125.419 52.2901 126.353 51.0558 126.686V126.72C52.5736 126.903 53.6745 127.937 53.6745 129.589C53.6745 131.857 51.7063 132.941 49.2376 132.941H45.3512ZM47.0025 122.516V126.119H49.1542C50.4219 126.119 51.4728 125.569 51.4728 124.284C51.4728 123.017 50.4553 122.516 48.8874 122.516H47.0025ZM47.0025 127.52V131.54H49.0708C50.472 131.54 52.0065 131.107 52.0065 129.505C52.0065 128.121 51.0224 127.52 49.221 127.52H47.0025ZM63.0254 132.941H61.5408C61.5075 132.541 61.4741 131.974 61.4741 131.64H61.4408C61.0404 132.474 60.0063 133.158 58.8554 133.158C56.8204 133.158 55.903 131.707 55.903 129.939V125.035H57.4709V129.405C57.4709 130.706 57.8212 131.84 59.2724 131.84C60.5234 131.84 61.3907 130.806 61.3907 129.238V125.035H62.9586V131.24C62.9586 131.657 62.9753 132.424 63.0254 132.941ZM71.0323 126.119L69.9481 127.037C69.5978 126.47 68.9139 126.053 68.1133 126.053C67.396 126.053 66.6454 126.336 66.6454 127.087C66.6454 127.754 67.2459 128.004 68.4469 128.271C69.9481 128.605 71.099 129.222 71.099 130.606C71.099 132.474 69.5478 133.158 67.9465 133.158C66.7455 133.158 65.5112 132.691 64.7606 131.74L65.8782 130.79C66.2952 131.407 67.0958 131.891 67.9798 131.891C68.7638 131.891 69.5478 131.607 69.5478 130.74C69.5478 130.006 68.8305 129.739 67.4794 129.422C66.4286 129.172 65.1776 128.721 65.1776 127.237C65.1776 125.535 66.6621 124.818 68.1633 124.818C69.2809 124.818 70.4652 125.269 71.0323 126.119ZM74.6741 125.035V132.941H73.1062V125.035H74.6741ZM74.941 122.183C74.941 122.75 74.4573 123.184 73.8902 123.184C73.323 123.184 72.856 122.733 72.856 122.183C72.856 121.616 73.323 121.165 73.8902 121.165C74.4573 121.165 74.941 121.599 74.941 122.183ZM77.3394 125.035H78.8239C78.8573 125.435 78.8906 126.002 78.8906 126.336H78.9407C79.3243 125.485 80.3752 124.818 81.5094 124.818C83.5444 124.818 84.4618 126.269 84.4618 128.037V132.941H82.8938V128.555C82.8938 127.27 82.5436 126.136 81.0924 126.136C79.8581 126.136 78.974 127.17 78.974 128.738V132.941H77.4061V126.736C77.4061 126.319 77.3894 125.552 77.3394 125.035ZM88.1986 128.288H92.9024C92.869 127.037 92.1351 126.053 90.6839 126.053C89.3328 126.053 88.2987 127.053 88.1986 128.288ZM94.487 128.921C94.487 129.088 94.487 129.272 94.4703 129.455H88.1986C88.2486 130.806 89.3829 131.857 90.7673 131.857C91.8348 131.857 92.6188 131.323 93.0692 130.656L94.17 131.54C93.3194 132.641 92.1684 133.158 90.7673 133.158C88.3654 133.158 86.5973 131.49 86.5973 129.005C86.5973 126.536 88.3654 124.818 90.6839 124.818C93.0191 124.818 94.487 126.403 94.487 128.921ZM102.03 126.119L100.946 127.037C100.596 126.47 99.912 126.053 99.1114 126.053C98.3941 126.053 97.6435 126.336 97.6435 127.087C97.6435 127.754 98.244 128.004 99.445 128.271C100.946 128.605 102.097 129.222 102.097 130.606C102.097 132.474 100.546 133.158 98.9446 133.158C97.7436 133.158 96.5093 132.691 95.7587 131.74L96.8762 130.79C97.2932 131.407 98.0939 131.891 98.9779 131.891C99.7619 131.891 100.546 131.607 100.546 130.74C100.546 130.006 99.8286 129.739 98.4775 129.422C97.4267 129.172 96.1757 128.721 96.1757 127.237C96.1757 125.535 97.6602 124.818 99.1614 124.818C100.279 124.818 101.463 125.269 102.03 126.119ZM109.442 126.119L108.358 127.037C108.007 126.47 107.324 126.053 106.523 126.053C105.806 126.053 105.055 126.336 105.055 127.087C105.055 127.754 105.656 128.004 106.856 128.271C108.358 128.605 109.509 129.222 109.509 130.606C109.509 132.474 107.957 133.158 106.356 133.158C105.155 133.158 103.921 132.691 103.17 131.74L104.288 130.79C104.705 131.407 105.505 131.891 106.389 131.891C107.173 131.891 107.957 131.607 107.957 130.74C107.957 130.006 107.24 129.739 105.889 129.422C104.838 129.172 103.587 128.721 103.587 127.237C103.587 125.535 105.072 124.818 106.573 124.818C107.69 124.818 108.875 125.269 109.442 126.119ZM121.023 126.119L119.939 127.037C119.589 126.47 118.905 126.053 118.104 126.053C117.387 126.053 116.637 126.336 116.637 127.087C116.637 127.754 117.237 128.004 118.438 128.271C119.939 128.605 121.09 129.222 121.09 130.606C121.09 132.474 119.539 133.158 117.938 133.158C116.737 133.158 115.502 132.691 114.752 131.74L115.869 130.79C116.286 131.407 117.087 131.891 117.971 131.891C118.755 131.891 119.539 131.607 119.539 130.74C119.539 130.006 118.822 129.739 117.471 129.422C116.42 129.172 115.169 128.721 115.169 127.237C115.169 125.535 116.653 124.818 118.154 124.818C119.272 124.818 120.456 125.269 121.023 126.119ZM124.649 131.757V136.945H123.081V125.035H124.615V126.269H124.665C125.182 125.435 126.216 124.818 127.518 124.818C129.869 124.818 131.471 126.636 131.471 128.972C131.471 131.29 129.919 133.158 127.484 133.158C126.367 133.158 125.282 132.641 124.699 131.757H124.649ZM129.853 128.972C129.853 127.487 128.935 126.119 127.217 126.119C125.616 126.119 124.548 127.47 124.548 128.988C124.548 130.506 125.616 131.84 127.217 131.84C128.935 131.84 129.853 130.456 129.853 128.972ZM134.736 128.288H139.44C139.407 127.037 138.673 126.053 137.222 126.053C135.871 126.053 134.837 127.053 134.736 128.288ZM141.025 128.921C141.025 129.088 141.025 129.272 141.008 129.455H134.736C134.786 130.806 135.921 131.857 137.305 131.857C138.373 131.857 139.157 131.323 139.607 130.656L140.708 131.54C139.857 132.641 138.706 133.158 137.305 133.158C134.903 133.158 133.135 131.49 133.135 129.005C133.135 126.536 134.903 124.818 137.222 124.818C139.557 124.818 141.025 126.403 141.025 128.921ZM143.147 125.035H144.632C144.665 125.435 144.698 126.002 144.698 126.336H144.748C145.132 125.485 146.183 124.818 147.317 124.818C149.352 124.818 150.27 126.269 150.27 128.037V132.941H148.702V128.555C148.702 127.27 148.351 126.136 146.9 126.136C145.666 126.136 144.782 127.17 144.782 128.738V132.941H143.214V126.736C143.214 126.319 143.197 125.552 143.147 125.035ZM159.227 131.69C158.627 132.641 157.493 133.158 156.375 133.158C153.94 133.158 152.388 131.29 152.388 128.972C152.388 126.636 153.99 124.818 156.358 124.818C157.643 124.818 158.627 125.452 159.177 126.219H159.211V120.331H160.779V132.941H159.261V131.69H159.227ZM154.023 128.972C154.023 130.456 154.924 131.84 156.642 131.84C158.243 131.84 159.311 130.506 159.311 128.988C159.311 127.47 158.243 126.119 156.642 126.119C154.924 126.119 154.023 127.487 154.023 128.972ZM165.095 125.035V132.941H163.527V125.035H165.095ZM165.362 122.183C165.362 122.75 164.878 123.184 164.311 123.184C163.744 123.184 163.277 122.733 163.277 122.183C163.277 121.616 163.744 121.165 164.311 121.165C164.878 121.165 165.362 121.599 165.362 122.183ZM167.76 125.035H169.245C169.278 125.435 169.311 126.002 169.311 126.336H169.361C169.745 125.485 170.796 124.818 171.93 124.818C173.965 124.818 174.882 126.269 174.882 128.037V132.941H173.314V128.555C173.314 127.27 172.964 126.136 171.513 126.136C170.279 126.136 169.395 127.17 169.395 128.738V132.941H167.827V126.736C167.827 126.319 167.81 125.552 167.76 125.035ZM177.151 135.51L178.152 134.292C178.836 135.06 179.954 135.577 181.038 135.577C183.123 135.577 183.823 134.292 183.823 132.658V131.64H183.79C183.206 132.524 182.122 133.008 181.004 133.008C178.586 133.008 177.018 131.207 177.018 128.938C177.018 126.67 178.569 124.818 180.988 124.818C182.122 124.818 183.24 125.319 183.84 126.303H183.873V125.035H185.391V132.541C185.391 134.843 184.307 136.945 181.021 136.945C179.653 136.945 178.135 136.411 177.151 135.51ZM178.636 128.905C178.636 130.356 179.603 131.69 181.255 131.69C182.873 131.69 183.94 130.473 183.94 128.905C183.94 127.404 182.856 126.119 181.255 126.119C179.603 126.119 178.636 127.387 178.636 128.905Z" fill="#0D333F"/>
<path d="M251.731 173.104V180.51H250.903V173.104H248.178V172.368H254.457V173.104H251.731ZM259.88 177.819C259.88 179.441 258.684 180.648 257.005 180.648C255.338 180.648 254.142 179.441 254.142 177.819C254.142 176.198 255.338 174.99 257.005 174.99C258.684 174.99 259.88 176.198 259.88 177.819ZM259.052 177.819C259.052 176.612 258.259 175.646 257.005 175.646C255.763 175.646 254.97 176.612 254.97 177.819C254.97 179.027 255.763 179.981 257.005 179.981C258.259 179.981 259.052 179.027 259.052 177.819ZM266.91 177.819C266.91 179.441 265.714 180.648 264.035 180.648C262.368 180.648 261.172 179.441 261.172 177.819C261.172 176.198 262.368 174.99 264.035 174.99C265.714 174.99 266.91 176.198 266.91 177.819ZM266.082 177.819C266.082 176.612 265.289 175.646 264.035 175.646C262.793 175.646 262 176.612 262 177.819C262 179.027 262.793 179.981 264.035 179.981C265.289 179.981 266.082 179.027 266.082 177.819ZM269.398 171.816V180.51H268.616V171.816H269.398ZM274.952 175.956L274.354 176.405C274.124 175.956 273.63 175.646 273.032 175.646C272.468 175.646 271.893 175.887 271.893 176.485C271.893 176.991 272.296 177.221 273.181 177.405C274.446 177.67 275.044 178.141 275.044 178.981C275.044 180.211 274.009 180.648 273.02 180.648C272.204 180.648 271.387 180.326 270.893 179.602L271.514 179.142C271.79 179.613 272.376 179.981 273.009 179.981C273.676 179.981 274.274 179.74 274.274 179.038C274.274 178.475 273.71 178.245 272.687 178.003C272.054 177.854 271.146 177.578 271.146 176.554C271.146 175.462 272.089 174.99 273.066 174.99C273.814 174.99 274.607 175.347 274.952 175.956Z" fill="#393A3D"/>
<path d="M179.648 171.471V172.23C180.488 172.242 181.419 172.506 182.04 173.047L181.109 174.013C180.752 173.622 180.177 173.403 179.648 173.403V175.726C180.821 176.094 182.098 176.635 182.098 178.187C182.098 179.786 180.925 180.602 179.648 180.637V181.465H179.027V180.637C178.015 180.602 177.049 180.269 176.325 179.567L177.337 178.601C177.751 179.084 178.441 179.441 179.027 179.452V176.899C177.682 176.531 176.624 176.002 176.624 174.53C176.624 173.162 177.797 172.334 179.027 172.253V171.471H179.648ZM179.027 175.565V173.403C178.487 173.461 178.004 173.794 178.004 174.461C178.004 175.094 178.441 175.393 179.027 175.565ZM179.648 177.083V179.452C180.292 179.418 180.718 178.946 180.718 178.268C180.718 177.589 180.258 177.29 179.648 177.083ZM183.666 180.51V179.245L186.805 176.163C187.311 175.669 187.633 175.197 187.633 174.565C187.633 173.806 187.07 173.311 186.334 173.311C185.552 173.311 185.057 173.909 184.954 174.703L183.608 174.496C183.769 173.15 184.862 172.161 186.357 172.161C187.771 172.161 189.071 172.978 189.071 174.542C189.071 175.588 188.484 176.313 187.76 177.003L185.414 179.245H189.082V180.51H183.666ZM190.167 181.959L190.972 178.923H192.306L191.329 181.959H190.167ZM196.88 180.51V178.82H193.12V177.601L196.581 172.368H198.237V177.635H199.376V178.82H198.237V180.51H196.88ZM196.88 177.635V173.99H196.857L194.546 177.635H196.88ZM205.705 172.368V173.61H202.381L202.301 175.37C202.554 175.301 202.968 175.266 203.255 175.266C204.854 175.266 206.061 176.198 206.061 177.842C206.061 179.648 204.716 180.717 203.094 180.717C201.737 180.717 200.771 180.027 200.346 178.935L201.599 178.475C201.829 179.119 202.404 179.544 203.129 179.544C203.945 179.544 204.647 178.981 204.647 177.992C204.647 176.738 203.715 176.37 202.83 176.37C202.209 176.37 201.427 176.566 200.932 176.819L201.07 172.368H205.705ZM213.299 176.439C213.299 179.073 212.276 180.717 210.436 180.717C208.584 180.717 207.549 179.073 207.549 176.439C207.549 173.806 208.584 172.161 210.436 172.161C212.276 172.161 213.299 173.806 213.299 176.439ZM211.885 176.439C211.885 175.301 211.666 173.311 210.436 173.311C209.194 173.311 208.964 175.301 208.964 176.439C208.964 177.578 209.194 179.544 210.436 179.544C211.666 179.544 211.885 177.578 211.885 176.439Z" fill="#393A3D"/>
<path fill-rule="evenodd" clip-rule="evenodd" d="M168.866 179.598C170.818 179.598 172.4 178.071 172.4 176.187C172.4 174.302 170.818 172.775 168.866 172.775C166.915 172.775 165.333 174.302 165.333 176.187C165.333 178.071 166.915 179.598 168.866 179.598Z" fill="#00D7D7"/>
<path d="M238.426 199.368L241.071 206.441H241.094L243.739 199.368H244.624L241.508 207.51H240.634L237.529 199.368H238.426ZM245.648 204.405H249.317C249.271 203.393 248.65 202.646 247.534 202.646C246.488 202.646 245.717 203.485 245.648 204.405ZM250.11 204.658C250.11 204.762 250.11 204.888 250.099 205.026H245.637C245.66 206.107 246.499 206.981 247.603 206.981C248.408 206.981 249.029 206.533 249.328 206.05L249.915 206.51C249.282 207.315 248.489 207.648 247.603 207.648C246.005 207.648 244.82 206.441 244.82 204.819C244.82 203.198 246.005 201.99 247.534 201.99C249.225 201.99 250.11 203.186 250.11 204.658ZM252.597 203.014H252.62C252.908 202.393 253.667 201.99 254.426 201.99C255.794 201.99 256.473 202.876 256.473 204.21V207.51H255.691V204.532C255.691 203.405 255.357 202.646 254.23 202.646C253.402 202.646 252.597 203.313 252.597 204.75V207.51H251.815V198.816H252.597V203.014ZM259.291 202.128V207.51H258.509V202.128H259.291ZM259.452 200.058C259.452 200.38 259.176 200.61 258.9 200.61C258.624 200.61 258.348 200.38 258.348 200.058C258.348 199.736 258.624 199.506 258.9 199.506C259.176 199.506 259.452 199.736 259.452 200.058ZM265.857 202.922L265.248 203.359C264.995 202.945 264.454 202.646 263.868 202.646C262.614 202.646 261.809 203.589 261.809 204.819C261.809 206.038 262.603 206.981 263.856 206.981C264.535 206.981 265.006 206.694 265.317 206.28L265.903 206.717C265.443 207.28 264.788 207.648 263.856 207.648C262.12 207.648 260.981 206.441 260.981 204.819C260.981 203.198 262.12 201.99 263.856 201.99C264.581 201.99 265.397 202.301 265.857 202.922ZM267.927 198.816V207.51H267.145V198.816H267.927ZM270.456 204.405H274.125C274.079 203.393 273.458 202.646 272.342 202.646C271.296 202.646 270.525 203.485 270.456 204.405ZM274.918 204.658C274.918 204.762 274.918 204.888 274.907 205.026H270.445C270.468 206.107 271.307 206.981 272.411 206.981C273.216 206.981 273.837 206.533 274.136 206.05L274.723 206.51C274.09 207.315 273.297 207.648 272.411 207.648C270.813 207.648 269.628 206.441 269.628 204.819C269.628 203.198 270.813 201.99 272.342 201.99C274.033 201.99 274.918 203.186 274.918 204.658Z" fill="#393A3D"/>
<path d="M179.776 198.332V199.091C180.616 199.103 181.547 199.367 182.168 199.908L181.237 200.874C180.88 200.483 180.305 200.264 179.776 200.264V202.587C180.949 202.955 182.226 203.496 182.226 205.048C182.226 206.647 181.053 207.463 179.776 207.498V208.326H179.155V207.498C178.143 207.463 177.177 207.13 176.453 206.428L177.465 205.462C177.879 205.945 178.569 206.302 179.155 206.313V203.76C177.81 203.392 176.752 202.863 176.752 201.391C176.752 200.023 177.925 199.195 179.155 199.114V198.332H179.776ZM179.155 202.426V200.264C178.615 200.322 178.132 200.655 178.132 201.322C178.132 201.955 178.569 202.254 179.155 202.426ZM179.776 203.944V206.313C180.42 206.279 180.846 205.807 180.846 205.129C180.846 204.45 180.386 204.151 179.776 203.944ZM186.209 207.371V200.908L184.599 202.231L183.794 201.276L186.335 199.229H187.589V207.371H186.209ZM190.813 207.371V206.106L193.952 203.024C194.458 202.53 194.78 202.058 194.78 201.426C194.78 200.667 194.217 200.172 193.481 200.172C192.699 200.172 192.204 200.77 192.101 201.564L190.755 201.357C190.916 200.011 192.009 199.022 193.504 199.022C194.918 199.022 196.218 199.839 196.218 201.403C196.218 202.449 195.631 203.174 194.907 203.864L192.561 206.106H196.229V207.371H190.813ZM197.314 208.82L198.119 205.784H199.453L198.476 208.82H197.314ZM200.819 207.371V206.106L203.959 203.024C204.465 202.53 204.787 202.058 204.787 201.426C204.787 200.667 204.223 200.172 203.487 200.172C202.705 200.172 202.211 200.77 202.107 201.564L200.762 201.357C200.923 200.011 202.015 199.022 203.51 199.022C204.925 199.022 206.224 199.839 206.224 201.403C206.224 202.449 205.638 203.174 204.913 203.864L202.567 206.106H206.236V207.371H200.819ZM212.852 199.229V200.471H209.529L209.448 202.231C209.701 202.162 210.115 202.127 210.403 202.127C212.001 202.127 213.209 203.059 213.209 204.703C213.209 206.509 211.863 207.578 210.242 207.578C208.885 207.578 207.919 206.888 207.493 205.796L208.747 205.336C208.977 205.98 209.552 206.405 210.276 206.405C211.093 206.405 211.794 205.842 211.794 204.853C211.794 203.599 210.863 203.231 209.977 203.231C209.356 203.231 208.574 203.427 208.08 203.68L208.218 199.229H212.852ZM220.446 203.3C220.446 205.934 219.423 207.578 217.583 207.578C215.731 207.578 214.696 205.934 214.696 203.3C214.696 200.667 215.731 199.022 217.583 199.022C219.423 199.022 220.446 200.667 220.446 203.3ZM219.032 203.3C219.032 202.162 218.813 200.172 217.583 200.172C216.341 200.172 216.111 202.162 216.111 203.3C216.111 204.439 216.341 206.405 217.583 206.405C218.813 206.405 219.032 204.439 219.032 203.3Z" fill="#393A3D"/>
<path fill-rule="evenodd" clip-rule="evenodd" d="M168.866 206.335C170.818 206.335 172.4 204.807 172.4 202.923C172.4 201.039 170.818 199.512 168.866 199.512C166.915 199.512 165.333 201.039 165.333 202.923C165.333 204.807 166.915 206.335 168.866 206.335Z" fill="#00C1BF"/>
<path d="M247.061 226.368L249.821 233.107H249.833L252.558 226.368H253.823V234.51H252.995V227.438H252.972L250.028 234.51H249.591L246.647 227.438H246.624V234.51H245.796V226.368H247.061ZM256.373 231.405H260.042C259.996 230.393 259.375 229.646 258.259 229.646C257.213 229.646 256.442 230.485 256.373 231.405ZM260.835 231.658C260.835 231.762 260.835 231.888 260.824 232.026H256.362C256.385 233.107 257.224 233.981 258.328 233.981C259.133 233.981 259.754 233.533 260.053 233.05L260.64 233.51C260.007 234.315 259.214 234.648 258.328 234.648C256.73 234.648 255.545 233.441 255.545 231.819C255.545 230.198 256.73 228.99 258.259 228.99C259.95 228.99 260.835 230.186 260.835 231.658ZM265.843 231.21V231.037C265.843 230.106 265.337 229.646 264.405 229.646C263.773 229.646 263.186 229.899 262.807 230.278L262.37 229.761C262.807 229.324 263.566 228.99 264.486 228.99C265.647 228.99 266.579 229.634 266.579 230.945V233.303C266.579 233.717 266.613 234.211 266.671 234.51H265.969C265.923 234.246 265.889 233.924 265.889 233.636H265.866C265.371 234.349 264.773 234.648 263.911 234.648C263.094 234.648 262.048 234.211 262.048 233.015C262.048 231.359 263.876 231.21 265.843 231.21ZM265.843 231.819H265.613C264.336 231.819 262.853 231.957 262.853 232.981C262.853 233.751 263.508 234.004 264.118 234.004C265.222 234.004 265.843 233.176 265.843 232.222V231.819ZM269.398 225.816V234.51H268.616V225.816H269.398ZM274.952 229.956L274.354 230.405C274.124 229.956 273.63 229.646 273.032 229.646C272.468 229.646 271.893 229.887 271.893 230.485C271.893 230.991 272.296 231.221 273.181 231.405C274.446 231.67 275.044 232.141 275.044 232.981C275.044 234.211 274.009 234.648 273.02 234.648C272.204 234.648 271.387 234.326 270.893 233.602L271.514 233.142C271.79 233.613 272.376 233.981 273.009 233.981C273.676 233.981 274.274 233.74 274.274 233.038C274.274 232.475 273.71 232.245 272.687 232.003C272.054 231.854 271.146 231.578 271.146 230.554C271.146 229.462 272.089 228.99 273.066 228.99C273.814 228.99 274.607 229.347 274.952 229.956Z" fill="#393A3D"/>
<path d="M179.776 225.069V225.828C180.616 225.839 181.547 226.104 182.168 226.644L181.237 227.61C180.88 227.219 180.305 227.001 179.776 227.001V229.324C180.949 229.692 182.226 230.232 182.226 231.785C182.226 233.383 181.053 234.2 179.776 234.234V235.062H179.155V234.234C178.143 234.2 177.177 233.866 176.453 233.165L177.465 232.199C177.879 232.682 178.569 233.038 179.155 233.05V230.497C177.81 230.129 176.752 229.6 176.752 228.128C176.752 226.759 177.925 225.931 179.155 225.851V225.069H179.776ZM179.155 229.163V227.001C178.615 227.058 178.132 227.392 178.132 228.059C178.132 228.691 178.569 228.99 179.155 229.163ZM179.776 230.681V233.05C180.42 233.015 180.846 232.544 180.846 231.865C180.846 231.187 180.386 230.888 179.776 230.681ZM186.393 225.966H188.072L185.99 228.979L186.002 228.99C186.22 228.898 186.588 228.852 186.864 228.852C188.302 228.852 189.463 229.979 189.463 231.463C189.463 233.188 188.164 234.315 186.496 234.315C184.794 234.315 183.518 233.096 183.518 231.52C183.518 230.589 183.828 229.956 184.357 229.117L186.393 225.966ZM184.921 231.555C184.921 232.406 185.53 233.142 186.485 233.142C187.416 233.142 188.049 232.498 188.049 231.532C188.049 230.612 187.428 229.945 186.508 229.945C185.576 229.945 184.921 230.6 184.921 231.555ZM195.827 225.966V227.208H192.503L192.423 228.967C192.676 228.898 193.09 228.864 193.377 228.864C194.976 228.864 196.183 229.795 196.183 231.44C196.183 233.245 194.838 234.315 193.216 234.315C191.859 234.315 190.893 233.625 190.468 232.532L191.721 232.072C191.951 232.716 192.526 233.142 193.251 233.142C194.067 233.142 194.769 232.578 194.769 231.589C194.769 230.336 193.837 229.968 192.952 229.968C192.331 229.968 191.549 230.163 191.054 230.416L191.192 225.966H195.827ZM203.421 230.037C203.421 232.67 202.397 234.315 200.557 234.315C198.706 234.315 197.671 232.67 197.671 230.037C197.671 227.403 198.706 225.759 200.557 225.759C202.397 225.759 203.421 227.403 203.421 230.037ZM202.006 230.037C202.006 228.898 201.788 226.909 200.557 226.909C199.315 226.909 199.085 228.898 199.085 230.037C199.085 231.175 199.315 233.142 200.557 233.142C201.788 233.142 202.006 231.175 202.006 230.037Z" fill="#393A3D"/>
<path fill-rule="evenodd" clip-rule="evenodd" d="M168.866 233.071C170.818 233.071 172.4 231.544 172.4 229.66C172.4 227.775 170.818 226.248 168.866 226.248C166.915 226.248 165.333 227.775 165.333 229.66C165.333 231.544 166.915 233.071 168.866 233.071Z" fill="#00A6A4"/>
<path d="M253.846 256.439C253.846 258.912 252.029 260.717 249.603 260.717C247.176 260.717 245.359 258.912 245.359 256.439C245.359 253.967 247.176 252.161 249.603 252.161C252.029 252.161 253.846 253.967 253.846 256.439ZM252.972 256.439C252.972 254.542 251.696 252.886 249.603 252.886C247.51 252.886 246.233 254.542 246.233 256.439C246.233 258.337 247.51 259.981 249.603 259.981C251.696 259.981 252.972 258.337 252.972 256.439ZM257.947 255.128V255.784H256.429V258.923C256.429 259.728 256.763 259.912 257.234 259.912C257.453 259.912 257.706 259.843 257.913 259.74L257.947 260.418C257.671 260.522 257.384 260.579 257.027 260.579C256.452 260.579 255.647 260.326 255.647 259.142V255.784H254.532V255.128H255.647V253.61H256.429V255.128H257.947ZM259.976 256.014H259.999C260.286 255.393 261.045 254.99 261.804 254.99C263.173 254.99 263.851 255.876 263.851 257.21V260.51H263.069V257.532C263.069 256.405 262.736 255.646 261.609 255.646C260.781 255.646 259.976 256.313 259.976 257.75V260.51H259.194V251.816H259.976V256.014ZM266.312 257.405H269.981C269.935 256.393 269.314 255.646 268.198 255.646C267.152 255.646 266.381 256.485 266.312 257.405ZM270.774 257.658C270.774 257.762 270.774 257.888 270.763 258.026H266.301C266.324 259.107 267.163 259.981 268.267 259.981C269.072 259.981 269.693 259.533 269.992 259.05L270.579 259.51C269.946 260.315 269.153 260.648 268.267 260.648C266.669 260.648 265.484 259.441 265.484 257.819C265.484 256.198 266.669 254.99 268.198 254.99C269.889 254.99 270.774 256.186 270.774 257.658ZM272.456 256.313C272.456 256.025 272.445 255.496 272.41 255.128H273.158C273.181 255.416 273.204 255.818 273.204 256.048H273.227C273.526 255.427 274.193 254.99 274.952 254.99C275.147 254.99 275.308 255.002 275.469 255.048L275.366 255.784C275.274 255.749 275.021 255.715 274.814 255.715C273.986 255.715 273.238 256.313 273.238 257.75V260.51H272.456V256.313Z" fill="#393A3D"/>
<path d="M179.648 251.828V252.587C180.488 252.599 181.419 252.863 182.04 253.404L181.109 254.37C180.752 253.979 180.177 253.76 179.648 253.76V256.083C180.821 256.451 182.098 256.992 182.098 258.544C182.098 260.143 180.925 260.959 179.648 260.994V261.822H179.027V260.994C178.015 260.959 177.049 260.626 176.325 259.924L177.337 258.958C177.751 259.441 178.441 259.798 179.027 259.809V257.256C177.682 256.888 176.624 256.359 176.624 254.887C176.624 253.519 177.797 252.691 179.027 252.61V251.828H179.648ZM179.027 255.922V253.76C178.487 253.818 178.004 254.151 178.004 254.818C178.004 255.451 178.441 255.75 179.027 255.922ZM179.648 257.44V259.809C180.292 259.775 180.718 259.303 180.718 258.625C180.718 257.946 180.258 257.647 179.648 257.44ZM185.31 257.176V256.072H185.678C186.495 256.072 187.415 255.842 187.415 254.841C187.415 254.105 186.817 253.668 186.127 253.668C185.46 253.668 184.988 254.094 184.827 254.715L183.528 254.381C183.815 253.289 184.885 252.518 186.184 252.518C187.61 252.518 188.806 253.289 188.806 254.749C188.806 255.623 188.231 256.371 187.346 256.589V256.612C188.335 256.808 189.025 257.567 189.025 258.567C189.025 260.258 187.564 261.074 186.184 261.074C184.816 261.074 183.666 260.511 183.229 259.154L184.517 258.751C184.712 259.395 185.276 259.901 186.138 259.901C186.851 259.901 187.633 259.533 187.633 258.556C187.633 257.498 186.518 257.176 185.655 257.176H185.31ZM190.478 253.967V252.725H196.009V253.99L192.755 260.867H191.133L194.56 253.967H190.478ZM202.718 252.725V253.967H199.394L199.314 255.727C199.567 255.658 199.981 255.623 200.268 255.623C201.867 255.623 203.074 256.555 203.074 258.199C203.074 260.005 201.729 261.074 200.107 261.074C198.75 261.074 197.784 260.384 197.359 259.292L198.612 258.832C198.842 259.476 199.417 259.901 200.142 259.901C200.958 259.901 201.66 259.338 201.66 258.349C201.66 257.095 200.728 256.727 199.843 256.727C199.222 256.727 198.44 256.923 197.945 257.176L198.083 252.725H202.718Z" fill="#393A3D"/>
<path fill-rule="evenodd" clip-rule="evenodd" d="M168.866 259.808C170.818 259.808 172.4 258.28 172.4 256.396C172.4 254.512 170.818 252.985 168.866 252.985C166.915 252.985 165.333 254.512 165.333 256.396C165.333 258.28 166.915 259.808 168.866 259.808Z" fill="#008380"/>
<path d="M42.4404 223.636C41.8009 215.918 42.769 208.152 45.2836 200.827C47.7981 193.503 51.8044 186.779 57.0495 181.082L71.4705 194.357C68.0612 198.06 65.4571 202.431 63.8227 207.192C62.1882 211.953 61.5589 217.001 61.9746 222.018L42.4404 223.636Z" fill="#00A6A4" stroke="white" stroke-width="1.40008"/>
<path d="M98.2524 163.008C109.921 163.008 121.298 166.653 130.795 173.433C140.291 180.213 147.432 189.791 151.221 200.827C155.01 211.863 155.257 223.807 151.927 234.991C148.598 246.174 141.858 256.039 132.65 263.206L120.611 247.738C126.596 243.079 130.977 236.667 133.141 229.398C135.305 222.129 135.145 214.365 132.682 207.191C130.219 200.018 125.578 193.793 119.405 189.385C113.232 184.978 105.837 182.609 98.2524 182.609V163.008Z" fill="#00D7D7" stroke="white" stroke-width="1.40008"/>
<path d="M132.65 263.206C124.686 269.404 115.194 273.336 105.179 274.584C95.1646 275.833 84.9984 274.352 75.756 270.297C66.5137 266.243 58.5386 259.767 52.6741 251.553C46.8096 243.34 43.2737 233.694 42.4403 223.636L61.9745 222.017C62.5162 228.555 64.8146 234.825 68.6265 240.164C72.4384 245.502 77.6222 249.712 83.6297 252.347C89.6373 254.982 96.2453 255.945 102.755 255.134C109.265 254.322 115.434 251.767 120.611 247.738L132.65 263.206Z" fill="#00C1BF" stroke="white" stroke-width="1.40008"/>
<path d="M57.0495 181.081C62.2945 175.384 68.6642 170.836 75.7562 167.725C82.8482 164.614 90.5082 163.008 98.2525 163.008V182.609C93.2187 182.609 88.2397 183.653 83.6299 185.675C79.0201 187.697 74.8798 190.653 71.4705 194.357L57.0495 181.081Z" fill="#008481" stroke="white" stroke-width="1.40008"/>
</g>
<defs>
<filter id="filter0_d_6002_1273" x="0.400675" y="0.0505061" width="317.199" height="319.137" filterUnits="userSpaceOnUse" color-interpolation-filters="sRGB">
<feFlood flood-opacity="0" result="BackgroundImageFix"/>
<feColorMatrix in="SourceAlpha" type="matrix" values="0 0 0 0 0 0 0 0 0 0 0 0 0 0 0 0 0 0 127 0" result="hardAlpha"/>
<feOffset dy="4.64983"/>
<feGaussianBlur stdDeviation="9.29966"/>
<feColorMatrix type="matrix" values="0 0 0 0 0 0 0 0 0 0 0 0 0 0 0 0 0 0 0.2 0"/>
<feBlend mode="normal" in2="BackgroundImageFix" result="effect1_dropShadow_6002_1273"/>
<feBlend mode="normal" in="SourceGraphic" in2="effect1_dropShadow_6002_1273" result="shape"/>
</filter>
</defs>
</svg>
